<svg version="1.1" viewBox="310 100 340 410" fill="none" stroke="none" stroke-linecap="square" stroke-miterlimit="10" xmlns:xlink="http://www.w3.org/1999/xlink" xmlns="http://www.w3.org/2000/svg">
<style>
    path { stroke: #a64d79; }
    </style>
<g>
    <path stroke-width="4" stroke-linejoin="round" stroke-linecap="butt" d="m351.3302 128.75601l257.25983 0l0 257.25986l-257.25983 0z"/>
    <path stroke-width="1" stroke-linejoin="round" stroke-linecap="butt" d="m351.38934 257.3268l0 0c0 -71.040344 57.58957 -128.62993 128.62991 -128.62993l0 0c34.114777 0 66.832306 13.552048 90.95511 37.674835c24.122803 24.122787 37.674805 56.840317 37.674805 90.95509l0 0c0 71.040344 -57.58954 128.62991 -128.62991 128.62991l0 0c-71.040344 0 -128.62991 -57.58957 -128.62991 -128.62991z"/>
    <path stroke-width="4" stroke-linejoin="round" stroke-linecap="butt" d="m351.40115 257.38593l128.62994 -128.62991l128.62991 128.62991l-128.62991 128.62994z"/>
    <path stroke-width="4" stroke-linejoin="round" stroke-linecap="butt" d="m402.06696 257.3321l77.968506 -77.968506l77.968506 77.968506l-77.968506 77.968506z"/>
    <path stroke-width="2" stroke-linejoin="round" stroke-linecap="butt" d="m426.75662 257.33414l0 0c0 -29.127594 23.859344 -52.740173 53.29135 -52.740173l0 0c14.133728 0 27.688599 5.556534 37.68268 15.447235c9.99408 9.890701 15.608643 23.305359 15.608643 37.29294l0 0c0 29.127563 -23.859314 52.740143 -53.29132 52.740143l0 0c-29.432007 0 -53.29135 -23.61258 -53.29135 -52.740143z"/>
    <path fill="#a64d79" d="m330.62863 483.0651l-11.203125 0l0 -56.015625l11.203125 0l0 22.421875l22.390625 0l0 -22.421875l11.203125 0l0 56.015625l-11.203125 0l0 -22.390625l-22.390625 0l0 22.390625zm82.66406 -21.296875q0 4.6875 -1.6875 8.734375q-1.671875 4.046875 -4.5625 7.0q-2.890625 2.9375 -6.78125 4.640625q-3.890625 1.703125 -8.34375 1.703125q-4.40625 0 -8.296875 -1.703125q-3.890625 -1.703125 -6.796875 -4.640625q-2.90625 -2.953125 -4.59375 -7.0q-1.671875 -4.046875 -1.671875 -8.734375q0 -4.765625 1.671875 -8.828125q1.6875 -4.0625 4.59375 -7.0q2.90625 -2.953125 6.796875 -4.625q3.890625 -1.6875 8.296875 -1.6875q4.453125 0 8.34375 1.578125q3.890625 1.578125 6.78125 4.5q2.890625 2.90625 4.5625 6.984375q1.6875 4.078125 1.6875 9.078125zm-10.75 0q0 -2.578125 -0.84375 -4.65625q-0.828125 -2.09375 -2.28125 -3.59375q-1.4375 -1.515625 -3.375 -2.3125q-1.9375 -0.796875 -4.125 -0.796875q-2.1875 0 -4.125 0.796875q-1.921875 0.796875 -3.359375 2.3125q-1.421875 1.5 -2.25 3.59375q-0.8125 2.078125 -0.8125 4.65625q0 2.421875 0.8125 4.5q0.828125 2.0625 2.25 3.59375q1.4375 1.515625 3.359375 2.40625q1.9375 0.875 4.125 0.875q2.1875 0 4.125 -0.8125q1.9375 -0.828125 3.375 -2.3125q1.453125 -1.484375 2.28125 -3.59375q0.84375 -2.109375 0.84375 -4.65625zm27.390625 21.296875l-10.75 0l0 -58.484375l10.75 0l0 58.484375zm48.554688 -21.296875q0 4.6875 -1.6875 8.734375q-1.671875 4.046875 -4.5625 7.0q-2.890625 2.9375 -6.78125 4.640625q-3.890625 1.703125 -8.34375 1.703125q-4.40625 0 -8.296875 -1.703125q-3.890625 -1.703125 -6.796875 -4.640625q-2.90625 -2.953125 -4.59375 -7.0q-1.671875 -4.046875 -1.671875 -8.734375q0 -4.765625 1.671875 -8.828125q1.6875 -4.0625 4.59375 -7.0q2.90625 -2.953125 6.796875 -4.625q3.890625 -1.6875 8.296875 -1.6875q4.453125 0 8.34375 1.578125q3.890625 1.578125 6.78125 4.5q2.890625 2.90625 4.5625 6.984375q1.6875 4.078125 1.6875 9.078125zm-10.75 0q0 -2.578125 -0.84375 -4.65625q-0.828125 -2.09375 -2.28125 -3.59375q-1.4375 -1.515625 -3.375 -2.3125q-1.9375 -0.796875 -4.125 -0.796875q-2.1875 0 -4.125 0.796875q-1.921875 0.796875 -3.359375 2.3125q-1.421875 1.5 -2.25 3.59375q-0.8125 2.078125 -0.8125 4.65625q0 2.421875 0.8125 4.5q0.828125 2.0625 2.25 3.59375q1.4375 1.515625 3.359375 2.40625q1.9375 0.875 4.125 0.875q2.1875 0 4.125 -0.8125q1.9375 -0.828125 3.375 -2.3125q1.453125 -1.484375 2.28125 -3.59375q0.84375 -2.109375 0.84375 -4.65625zm53.203156 -12.21875l-7.8125 7.84375q-0.578125 -1.640625 -1.5937805 -2.9375q-1.015625 -1.3125 -2.296875 -2.203125q-1.265625 -0.90625 -2.75 -1.375q-1.484375 -0.46875 -3.046875 -0.46875q-2.1875 0 -4.125 0.90625q-1.921875 0.890625 -3.359375 2.515625q-1.421875 1.609375 -2.25 3.84375q-0.8125 2.21875 -0.8125 4.921875q0 2.1875 0.8125 4.109375q0.828125 1.90625 2.25 3.359375q1.4375 1.4375 3.359375 2.265625q1.9375 0.8125 4.125 0.8125q1.5625 0 3.0 -0.421875q1.453125 -0.4375 2.71875 -1.234375q1.28125 -0.8125 2.265625 -1.953125q1.0000305 -1.15625 1.6250305 -2.5625l7.8125 7.84375q-1.484375 2.109375 -3.421875 3.796875q-1.921875 1.671875 -4.171875 2.84375q-2.2500305 1.171875 -4.7344055 1.78125q-2.46875 0.609375 -5.09375 0.609375q-4.40625 0 -8.296875 -1.65625q-3.890625 -1.671875 -6.796875 -4.5625q-2.90625 -2.890625 -4.59375 -6.75q-1.671875 -3.875 -1.671875 -8.28125q0 -4.8125 1.671875 -8.984375q1.6875 -4.1875 4.59375 -7.28125q2.90625 -3.109375 6.796875 -4.90625q3.890625 -1.796875 8.296875 -1.796875q2.625 0 5.140625 0.671875q2.515625 0.65625 4.7969055 1.921875q2.296875 1.265625 4.21875 3.109375q1.9375 1.828125 3.34375 4.21875zm15.8671875 33.515625l-10.671875 0l0 -41.84375l2.578125 0l3.515625 4.96875q2.578125 -2.34375 5.859375 -3.609375q3.28125 -1.28125 6.796814 -1.28125l9.421875 0l0 10.625l-9.421875 0q-1.671814 0 -3.156189 0.625q-1.484375 0.625 -2.578125 1.71875q-1.09375 1.09375 -1.71875 2.578125q-0.625 1.484375 -0.625 3.171875l0 23.046875zm62.109314 -21.296875q0 4.6875 -1.6875 8.734375q-1.671875 4.046875 -4.5625 7.0q-2.890625 2.9375 -6.78125 4.640625q-3.890625 1.703125 -8.34375 1.703125q-4.40625 0 -8.296875 -1.703125q-3.890625 -1.703125 -6.796875 -4.640625q-2.90625 -2.953125 -4.59375 -7.0q-1.671875 -4.046875 -1.671875 -8.734375q0 -4.765625 1.671875 -8.828125q1.6875 -4.0625 4.59375 -7.0q2.90625 -2.953125 6.796875 -4.625q3.890625 -1.6875 8.296875 -1.6875q4.453125 0 8.34375 1.578125q3.890625 1.578125 6.78125 4.5q2.890625 2.90625 4.5625 6.984375q1.6875 4.078125 1.6875 9.078125zm-10.75 0q0 -2.578125 -0.84375 -4.65625q-0.828125 -2.09375 -2.28125 -3.59375q-1.4375 -1.515625 -3.375 -2.3125q-1.9375 -0.796875 -4.125 -0.796875q-2.1875 0 -4.125 0.796875q-1.921875 0.796875 -3.359375 2.3125q-1.421875 1.5 -2.25 3.59375q-0.8125 2.078125 -0.8125 4.65625q0 2.421875 0.8125 4.5q0.828125 2.0625 2.25 3.59375q1.4375 1.515625 3.359375 2.40625q1.9375 0.875 4.125 0.875q2.1875 0 4.125 -0.8125q1.9375 -0.828125 3.375 -2.3125q1.453125 -1.484375 2.28125 -3.59375q0.84375 -2.109375 0.84375 -4.65625zm27.3125 21.296875l-10.671875 0l0 -41.84375l2.578125 0l3.515625 4.0625q2.578125 -2.34375 5.84375 -3.609375q3.265625 -1.265625 6.8125 -1.265625q3.828125 0 7.21875 1.46875q3.40625 1.453125 5.9375 4.015625q2.546875 2.5625 4.015625 5.984375q1.46875 3.40625 1.46875 7.28125l0 23.90625l-10.671875 0l0 -23.90625q0 -1.640625 -0.625 -3.109375q-0.625 -1.46875 -1.71875 -2.5625q-1.09375 -1.09375 -2.546875 -1.71875q-1.4375 -0.625 -3.078125 -0.625q-1.671875 0 -3.15625 0.625q-1.484375 0.625 -2.578125 1.71875q-1.09375 1.09375 -1.71875 2.5625q-0.625 1.46875 -0.625 3.109375l0 23.90625z"/></g>
</svg>
