<svg version="1.1" viewBox="320 100 320 320" fill="none" stroke="none" stroke-linecap="square" stroke-miterlimit="10" xmlns:xlink="http://www.w3.org/1999/xlink" xmlns="http://www.w3.org/2000/svg">
    <clipPath id="g10dff4c7fab_0_33.0"><path d="m0 0l960.0 0l0 540.0l-960.0 0l0 -540.0z" clip-rule="nonzero"/></clipPath>
    <g clip-path="url(#g10dff4c7fab_0_33.0)">
        <path fill="#ffffff" d="m0 0l960.0 0l0 540.0l-960.0 0z" fill-rule="evenodd"/>
        <path fill="#ffffff" d="m351.3302 128.75601l257.25983 0l0 257.25986l-257.25983 0z" fill-rule="evenodd"/>
        <path stroke="#434343" stroke-width="4.0" stroke-linejoin="round" stroke-linecap="butt" d="m351.3302 128.75601l257.25983 0l0 257.25986l-257.25983 0z" fill-rule="evenodd"/>
        <path fill="#ffffff" d="m351.38934 257.3268l0 0c0 -71.040344 57.58957 -128.62993 128.62991 -128.62993l0 0c34.114777 0 66.832306 13.552048 90.95511 37.674835c24.122803 24.122787 37.674805 56.840317 37.674805 90.95509l0 0c0 71.040344 -57.58954 128.62991 -128.62991 128.62991l0 0c-71.040344 0 -128.62991 -57.58957 -128.62991 -128.62991z" fill-rule="evenodd"/>
        <path stroke="#434343" stroke-width="1.0" stroke-linejoin="round" stroke-linecap="butt" d="m351.38934 257.3268l0 0c0 -71.040344 57.58957 -128.62993 128.62991 -128.62993l0 0c34.114777 0 66.832306 13.552048 90.95511 37.674835c24.122803 24.122787 37.674805 56.840317 37.674805 90.95509l0 0c0 71.040344 -57.58954 128.62991 -128.62991 128.62991l0 0c-71.040344 0 -128.62991 -57.58957 -128.62991 -128.62991z" fill-rule="evenodd"/>
        <path fill="#ffffff" d="m351.40115 257.38593l128.62994 -128.62991l128.62991 128.62991l-128.62991 128.62994z" fill-rule="evenodd"/>
        <path stroke="#434343" stroke-width="4.0" stroke-linejoin="round" stroke-linecap="butt" d="m351.40115 257.38593l128.62994 -128.62991l128.62991 128.62991l-128.62991 128.62994z" fill-rule="evenodd"/>
        <path fill="#ffffff" d="m402.06696 257.3321l77.968506 -77.968506l77.968506 77.968506l-77.968506 77.968506z" fill-rule="evenodd"/>
        <path stroke="#434343" stroke-width="4.0" stroke-linejoin="round" stroke-linecap="butt" d="m402.06696 257.3321l77.968506 -77.968506l77.968506 77.968506l-77.968506 77.968506z" fill-rule="evenodd"/>
        <path fill="#ffffff" d="m426.75662 257.33414l0 0c0 -29.127594 23.859344 -52.740173 53.29135 -52.740173l0 0c14.133728 0 27.688599 5.556534 37.68268 15.447235c9.99408 9.890701 15.608643 23.305359 15.608643 37.29294l0 0c0 29.127563 -23.859314 52.740143 -53.29132 52.740143l0 0c-29.432007 0 -53.29135 -23.61258 -53.29135 -52.740143z" fill-rule="evenodd"/>
        <path stroke="#434343" stroke-width="2.0" stroke-linejoin="round" stroke-linecap="butt" d="m426.75662 257.33414l0 0c0 -29.127594 23.859344 -52.740173 53.29135 -52.740173l0 0c14.133728 0 27.688599 5.556534 37.68268 15.447235c9.99408 9.890701 15.608643 23.305359 15.608643 37.29294l0 0c0 29.127563 -23.859314 52.740143 -53.29132 52.740143l0 0c-29.432007 0 -53.29135 -23.61258 -53.29135 -52.740143z" fill-rule="evenodd"/></g>
</svg>
